HIERARCHY
ROOT hip
{
	OFFSET 0.000000 0.000000 0.000000 
	CHANNELS 6 Xposition Yposition Zposition Xrotation Zrotation Yrotation
	JOINT abdomen
	{
		OFFSET 0.000000 3.402643 0.000000 
		CHANNELS 3 Xrotation Zrotation Yrotation
		JOINT chest
		{
			OFFSET 0.000000 8.438565 -0.680529 
			CHANNELS 3 Xrotation Zrotation Yrotation
			JOINT neck
			{
				OFFSET 0.000000 10.207942 -0.272212 
				CHANNELS 3 Xrotation Zrotation Yrotation
				JOINT head
				{
					OFFSET 0.000000 3.130431 0.000000 
					CHANNELS 3 Xrotation Zrotation Yrotation
					End Site
					{
						OFFSET 0.000000 3.130435 0.000000 
					}
				}
			}
			JOINT lCollar
			{
				OFFSET 3.470700 6.669187 -0.816635 
				CHANNELS 3 Yrotation Zrotation Xrotation
				JOINT lShldr
				{
					OFFSET 3.198488 0.000000 0.000000 
					CHANNELS 3 Zrotation Yrotation Xrotation
					JOINT lForeArm
					{
						OFFSET 10.139888 0.000000 0.000000 
						CHANNELS 3 Yrotation Zrotation Xrotation
						JOINT lHand
						{
							OFFSET 8.370511 0.000000 0.000000 
							CHANNELS 3 Zrotation Yrotation Xrotation
							End Site
							{
								OFFSET 4.083176 0.000000 0.000000 
							}
						}
					}
				}
			}
			JOINT rCollar
			{
				OFFSET -3.470700 6.669187 -0.816635 
				CHANNELS 3 Yrotation Zrotation Xrotation
				JOINT rShldr
				{
					OFFSET -3.198488 0.000000 0.000000 
					CHANNELS 3 Zrotation Yrotation Xrotation
					JOINT rForeArm
					{
						OFFSET -10.139888 0.000000 0.000000 
						CHANNELS 3 Yrotation Zrotation Xrotation
						JOINT rHand
						{
							OFFSET -8.370511 0.000000 0.000000 
							CHANNELS 3 Zrotation Yrotation Xrotation
							End Site
							{
								OFFSET -4.083176 0.000000 0.000000 
							}
						}
					}
				}
			}
		}
	}
	JOINT lThigh
	{
		OFFSET 5.308129 -1.633274 1.361059 
		CHANNELS 3 Xrotation Zrotation Yrotation
		JOINT lShin
		{
			OFFSET -2.041588 -20.007561 0.000000 
			CHANNELS 3 Xrotation Zrotation Yrotation
			JOINT lFoot
			{
				OFFSET 0.000000 -19.190928 -1.224953 
				CHANNELS 3 Xrotation Yrotation Zrotation
				End Site
				{
					OFFSET 0.000000 -2.449906 4.627600 
				}
			}
		}
	}
	JOINT rThigh
	{
		OFFSET -5.308129 -1.633274 1.361059 
		CHANNELS 3 Xrotation Zrotation Yrotation
		JOINT rShin
		{
			OFFSET 2.041588 -20.007561 0.000000 
			CHANNELS 3 Xrotation Zrotation Yrotation
			JOINT rFoot
			{
				OFFSET 0.000000 -19.190928 -1.224953 
				CHANNELS 3 Xrotation Yrotation Zrotation
				End Site
				{
					OFFSET 0.000000 -2.449906 4.627600 
				}
			}
		}
	}
}
MOTION
Frames: 6
Frame Time: 0.016667
-34.491272 50.734360 13.845874 -5.544333 -6.649752 -92.229584 5.019107 -0.166015 0.146484 17.023846 3.165089 11.727536 27.868977 -6.667270 -3.510342 -35.905205 -0.337845 -8.720897 13.053392 26.383387 -6.236504 -1.857173 5.365546 -95.471619 -14.331778 -2.420863 -22.393990 1.644208 -3.403038 -3.510995 -23.751074 -30.000000 -13.832479 -46.538742 42.721127 -107.683380 21.884501 1.744717 -11.255104 -1.662539 3.382353 -3.511080 -19.308249 3.933736 0.122064 18.736774 2.341608 -16.831602 7.077202 1.897470 -3.841199 -17.612131 -17.182526 -0.980018 5.140604 11.742888 -50.359962 7.901283 2.841765 -7.134352 
-35.953190 50.037350 14.049808 -6.516588 -7.057821 -101.944778 5.019107 -0.166015 0.146484 18.515764 2.713611 16.640751 27.704010 -9.080594 -4.747297 -36.307484 0.776416 -6.377424 11.395940 22.727747 -4.499820 -3.031992 10.994851 -94.134552 -14.247503 -2.434662 -22.719503 1.644208 -3.403038 -3.510995 -24.676687 -30.000000 -14.801851 -51.671501 47.155907 -111.205917 23.254055 1.761073 -12.321653 -1.662539 3.382353 -3.511080 -20.132301 2.479537 0.057164 18.235929 2.350168 -15.897944 6.206858 1.895265 -3.848894 -19.537214 -16.725283 -0.952171 7.813131 13.250348 -51.925407 4.746508 2.831240 -7.133868 
-37.641415 49.193237 14.242422 -8.115262 -7.840227 -111.959679 5.019107 -0.166015 0.146484 19.907513 0.974834 21.106794 27.263506 -10.839223 -5.529023 -36.653255 1.743221 -4.259700 9.721821 16.643448 -2.911822 -5.467752 16.594950 -91.865555 -14.311967 -2.437561 -22.858904 1.644208 -3.403038 -3.510995 -22.694672 -30.000000 -13.689979 -58.234657 52.136471 -115.235153 24.566319 1.836089 -13.722715 -1.662539 3.382353 -3.511080 -21.954008 1.288382 -0.034078 19.317369 2.397921 -15.536696 5.629727 1.882852 -3.840504 -21.930819 -16.589773 -0.940278 10.237823 14.503490 -52.187725 1.307117 2.822796 -7.163794 
-39.329903 48.348984 14.434817 -9.550033 -8.883274 -121.973366 5.019107 -0.166015 0.146484 21.155449 -0.872339 25.540180 26.839815 -12.601570 -6.306099 -36.956856 2.712952 -2.140896 8.253761 10.525847 -1.545843 -7.739098 22.273859 -89.778656 -14.367614 -2.443940 -22.999159 1.644208 -3.403038 -3.510995 -20.715731 -29.998465 -12.586417 -66.219688 56.760921 -120.751472 25.874767 1.869635 -15.121229 -1.662539 3.382353 -3.511080 -23.758936 0.087239 -0.094817 20.396206 2.462089 -15.163078 5.043751 1.863806 -3.844642 -24.309389 -16.440626 -0.934625 12.665811 15.771152 -52.414783 -2.121806 2.832393 -7.188118 
-41.222084 47.397228 14.457478 -10.867454 -10.360601 -131.150574 5.019107 -0.166015 0.146484 21.977676 -3.277256 28.292339 26.119631 -13.537411 -6.550726 -37.080528 3.486202 -0.489159 7.161923 4.586691 -0.651836 -12.633495 26.614595 -89.071289 -14.509956 -2.441167 -23.102106 1.644208 -3.403038 -3.510995 -15.307542 -30.000000 -9.119483 -73.740005 62.915283 -125.602394 26.695972 1.933038 -16.458847 -1.662539 3.382353 -3.511080 -26.038187 -0.605579 -0.179439 23.738672 2.791573 -13.864760 3.826147 1.873147 -3.826753 -26.882439 -16.492800 -0.954200 15.918241 17.732985 -50.463573 -6.616626 2.809352 -7.172482 
-43.114410 46.445362 14.479846 -11.934778 -12.017933 -140.333771 5.019107 -0.166015 0.146484 22.682589 -5.723406 31.011091 25.406429 -14.482162 -6.789879 -37.178715 4.276463 1.165427 6.165150 -1.373088 0.126417 -17.680059 30.992123 -88.786415 -14.656169 -2.446848 -23.205223 1.644208 -3.403038 -3.510995 -9.897234 -30.000000 -5.663068 95.439217 111.383972 46.151539 27.509655 1.972100 -17.791924 -1.662539 3.382353 -3.511080 -28.320980 -1.289042 -0.215582 27.069733 3.046726 -12.593715 2.593877 1.889852 -3.837127 -29.449194 -16.550564 -0.956843 19.296856 19.578279 -48.361851 -11.109386 2.786122 -7.169026 
